<svg xmlns="http://www.w3.org/2000/svg" version="1.1" xmlns:xlink="http://www.w3.org/1999/xlink" xmlns:svgjs="http://svgjs.dev/svgjs" width="1000" height="335" viewBox="0 0 1000 335"><g transform="matrix(1,0,0,1,-0.6060606060606233,0.45656236617509194)"><svg viewBox="0 0 396 133" data-background-color="#8d021f" preserveAspectRatio="xMidYMid meet" height="335" width="1000" xmlns="http://www.w3.org/2000/svg" xmlns:xlink="http://www.w3.org/1999/xlink"><g id="tight-bounds" transform="matrix(1,0,0,1,0.2400000000000091,-0.18126207373518355)"><svg viewBox="0 0 395.52 133.3625241474704" height="133.3625241474704" width="395.52"><g><svg viewBox="0 0 636.1194746416106 214.48851839999998" height="133.3625241474704" width="395.52"><g transform="matrix(1,0,0,1,0,51.9422457771812)"><svg viewBox="0 0 395.52 110.60402684563758" height="110.60402684563758" width="395.52"><g><svg viewBox="0 0 395.52 110.60402684563758" height="110.60402684563758" width="395.52"><g><svg viewBox="0 0 395.52 110.60402684563758" height="110.60402684563758" width="395.52"><g transform="matrix(1,0,0,1,0,0)"><svg width="395.52" viewBox="1.5499999523162842 -43.349998474121094 156.44000244140625 43.75" height="110.60402684563758" data-palette-color="#ff5858"><path d="M10.75 0.4Q6.1 0.4 3.83-2.88 1.55-6.15 1.55-12.8L1.55-12.8 1.55-31.3Q1.55-37.25 4.2-40.3 6.85-43.35 12.1-43.35L12.1-43.35Q16.35-43.35 18.7-41.65 21.05-39.95 21.95-36.7 22.85-33.45 22.85-28.35L22.85-28.35 14.45-28.35 14.45-32.2Q14.45-33.75 14.03-34.6 13.6-35.45 12.5-35.45L12.5-35.45Q10.05-35.45 10.05-32.25L10.05-32.25 10.05-11.45Q10.05-9.5 10.55-8.5 11.05-7.5 12.3-7.5L12.3-7.5Q13.55-7.5 14.05-8.5 14.55-9.5 14.55-11.45L14.55-11.45 14.55-17.6 12.25-17.6 12.25-25 22.75-25 22.75 0 19.3 0 17.85-3.6Q15.55 0.4 10.75 0.4L10.75 0.4ZM36.4 0.4Q31.2 0.4 28.5-2.78 25.8-5.95 25.8-11.7L25.8-11.7 25.8-32.15Q25.8-37.7 28.5-40.53 31.2-43.35 36.4-43.35L36.4-43.35Q41.6-43.35 44.3-40.53 47-37.7 47-32.15L47-32.15 47-11.7Q47-5.9 44.3-2.75 41.6 0.4 36.4 0.4L36.4 0.4ZM36.4-7.5Q37.55-7.5 37.95-8.5 38.35-9.5 38.35-11.3L38.35-11.3 38.35-32.3Q38.35-33.7 37.97-34.58 37.6-35.45 36.45-35.45L36.45-35.45Q34.3-35.45 34.3-32.2L34.3-32.2 34.3-11.25Q34.3-9.4 34.75-8.45 35.2-7.5 36.4-7.5L36.4-7.5ZM58.84 0L50.45 0 50.45-42.95 59.3-42.95 63.25-22.4 63.25-42.95 71.55-42.95 71.55 0 63.15 0 58.84-21.5 58.84 0ZM85.29 0.4Q79.99 0.4 77.42-2.6 74.84-5.6 74.84-11.5L74.84-11.5 74.84-42.95 83.19-42.95 83.19-11.85Q83.19-9.8 83.59-8.65 83.99-7.5 85.29-7.5L85.29-7.5Q86.59-7.5 86.99-8.63 87.39-9.75 87.39-11.85L87.39-11.85 87.39-42.95 95.74-42.95 95.74-11.5Q95.74-5.6 93.17-2.6 90.59 0.4 85.29 0.4L85.29 0.4ZM106.79 0L99.04 0 99.04-42.95 112.14-42.95 115.74-16.75 119.34-42.95 132.54-42.95 132.54 0 124.69 0 124.69-30.95 119.74 0 112.04 0 106.79-30.95 106.79 0ZM143.54 0L135.19 0 139.34-42.95 153.89-42.95 157.99 0 149.84 0 149.24-6.95 144.04-6.95 143.54 0ZM146.29-35.65L144.69-13.8 148.59-13.8 146.69-35.65 146.29-35.65Z" opacity="1" transform="matrix(1,0,0,1,0,0)" fill="#ff5858" class="undefined-text-0" data-fill-palette-color="primary" id="text-0"></path></svg></g></svg></g></svg></g></svg></g><g transform="matrix(1,0,0,1,421.6309562416107,0)"><svg viewBox="0 0 214.48851839999998 214.48851839999998" height="214.48851839999998" width="214.48851839999998"><g><svg></svg></g><g id="icon-0"><svg viewBox="0 0 214.48851839999998 214.48851839999998" height="214.48851839999998" width="214.48851839999998"><g><rect width="195.02567136" height="195.02567136" x="9.731423519999993" y="9.731423519999993" fill="#ed2647" data-fill-palette-color="accent"></rect><rect width="195.02567136" height="195.02567136" x="-5.329070518200751e-15" y="-5.329070518200751e-15" fill="#ed2647" opacity="0.5" data-fill-palette-color="accent"></rect></g><g transform="matrix(1,0,0,1,27.80406719999999,27.804396062605804)"><svg viewBox="0 0 158.880384 158.87972627478837" height="158.87972627478837" width="158.880384"><g><svg xmlns="http://www.w3.org/2000/svg" xmlns:xlink="http://www.w3.org/1999/xlink" version="1.0" x="0" y="0" viewBox="4.667734146118164 4.6859588623046875 90.3050308227539 90.30465698242188" enable-background="new 0 0 100 100" xml:space="preserve" height="158.87972627478837" width="158.880384" class="icon-a-0" data-fill-palette-color="background" id="a-0"><path d="M17.504 35.743c-1.334 8.611 0.522 17.134 5.093 23.382 3.514 4.801 8.413 7.905 13.796 8.739 5.677 0.88 11.253-0.429 15.703-3.685 1.248-0.912 2.36-1.946 3.326-3.076-2.222 0.978-4.814 1.267-7.626 0.831-11.717-1.816-19.673-13.464-17.735-25.964 0.934-6.03 4.384-11.497 9.713-15.397 6.768-4.952 15.953-6.97 25.201-5.537 7.474 1.158 17.67 5.964 25.56 15.213 0 0-22.835-39.421-56.115-20.356C23.689 16.04 18.653 28.323 17.504 35.743z" fill="#8d021f" data-fill-palette-color="background"></path><path d="M82.544 65.256c1.659-8.555 0.125-17.141-4.207-23.557-3.331-4.931-8.109-8.217-13.457-9.253-5.639-1.094-11.261 0.004-15.83 3.091-1.282 0.863-2.431 1.854-3.44 2.947 2.257-0.894 4.859-1.084 7.652-0.543 11.64 2.257 19.151 14.196 16.744 26.616-1.161 5.989-4.815 11.324-10.288 15.019-6.949 4.692-16.205 6.364-25.393 4.582C26.902 82.719 16.894 77.532 9.358 67.992c0 0 21.331 40.255 55.307 22.457C75.621 84.712 81.115 72.628 82.544 65.256z" fill="#8d021f" data-fill-palette-color="background"></path><path d="M35.726 82.88c8.611 1.334 17.133-0.522 23.381-5.094 4.801-3.514 7.905-8.413 8.74-13.796 0.879-5.676-0.429-11.253-3.686-15.702-0.912-1.248-1.946-2.36-3.076-3.327 0.979 2.222 1.267 4.815 0.831 7.626-1.816 11.717-13.463 19.673-25.965 17.736-6.029-0.934-11.497-4.385-15.395-9.713-4.952-6.768-6.971-15.954-5.538-25.202 1.158-7.474 5.964-17.67 15.213-25.559 0 0-39.421 22.835-20.356 56.115C16.022 76.695 28.305 81.73 35.726 82.88z" fill="#8d021f" data-fill-palette-color="background"></path><path d="M90.432 35.718c-5.738-10.955-17.822-16.45-25.194-17.879-8.554-1.659-17.141-0.125-23.557 4.208-4.931 3.331-8.217 8.108-9.254 13.456-1.094 5.64 0.004 11.261 3.092 15.83 0.863 1.282 1.854 2.431 2.946 3.441-0.894-2.257-1.084-4.859-0.542-7.652 2.257-11.64 14.196-19.151 26.615-16.744 5.99 1.161 11.324 4.816 15.019 10.289 4.693 6.949 6.363 16.204 4.583 25.392-1.44 7.423-6.626 17.431-16.167 24.966C67.973 91.025 108.228 69.694 90.432 35.718z" fill="#8d021f" data-fill-palette-color="background"></path></svg></g></svg></g></svg></g></svg></g></svg></g><defs></defs></svg><rect width="395.52" height="133.3625241474704" fill="none" stroke="none" visibility="hidden"></rect></g></svg></g></svg>